<?xml version="1.0" standalone="no"?><!DOCTYPE svg PUBLIC "-//W3C//DTD SVG 1.1//EN" "http://www.w3.org/Graphics/SVG/1.1/DTD/svg11.dtd"><svg class="icon" height="512" viewBox="0 0 1024 1024" version="1.1" xmlns="http://www.w3.org/2000/svg"><path d="M513.36509 957.477934c-224.403886 0-406.322146-177.177282-406.322145-395.742183 0-152.85841 89.005127-285.437961 219.272005-351.33888 66.864874-30.962176 92.897783 72.825632 38.385239 98.959849-86.428442 50.087768-144.476509 142.387941-144.476509 248.173243 0 159.169139 131.24209 288.209074 293.14141 288.209074s293.14141-129.039935 293.141411-288.209074c0-115.615181-56.865125-183.584202-157.697625-243.667626-59.269895-28.024264-49.941436-164.458609 81.894171-82.682117 129.124869 66.267263 188.984189 178.517813 188.984189 330.555531 0 218.564901-181.918259 395.742183-406.322146 395.742183z m9.451257-484.198817H485.020532c-17.622356-0.898463-37.917588-38.405705-37.799908-55.873542 0.381693 15.013949 0-297.968345 0-297.968345 0-22.201651 20.198018-55.865355 37.799908-55.865356h37.795815c17.60189 0 37.795814 33.663704 37.795814 55.865356v297.968345c0 22.209838-20.193925 55.873542-37.795814 55.873542z" fill="#2c2c2c" /></svg>